<?xml version="1.0" encoding="UTF-8"?>
<svg width="1200pt" height="1200pt" version="1.1" viewBox="0 0 1200 1200" xmlns="http://www.w3.org/2000/svg">
 <path d="m1164 490.8c-1.1992-7.1992-2.3984-15.602-4.8008-24-1.1992-3.6016-2.3984-8.3984-2.3984-12l-1.1992-2.3984v-1.1992s-1.1992-2.3984 0-1.1992v-1.1992c0-2.3984-1.1992-3.6016-1.1992-6-1.1992-3.6016-2.3984-7.1992-3.6016-10.801 0-2.3984-1.1992-3.6016-1.1992-6 0-2.3984-1.1992-3.6016-2.3984-6-1.1992-3.6016-2.3984-8.3984-4.8008-12-1.1992-2.3984-1.1992-4.8008-2.3984-6l-1.1992-3.6016-1.1992-2.3984c-12-32.398-28.801-64.801-50.398-96-20.398-30-45.602-58.801-72-84-27.602-25.199-57.602-48-88.801-66-31.199-19.199-64.801-33.602-97.199-44.398-32.398-10.801-66-18-97.199-21.602-7.1992-1.1992-15.602-1.1992-22.801-2.3984-7.1992 0-15.602-1.1992-22.801-1.1992h-10.801-10.801-10.801c-3.6016 0-7.1992 0-10.801 1.1992-3.6016 0-7.1992 0-9.6016 1.1992-3.6016 0-7.1992 0-9.6016 1.1992-6 1.1992-13.199 1.1992-19.199 2.3984-2.3984 0-6 1.1992-8.3984 1.1992-2.3984 0-6 1.1992-8.3984 1.1992-3.6016 1.1992-7.1992 1.1992-10.801 2.3984h-1.1992c-1.1992 0-2.3984 1.1992-3.6016 1.1992-43.199 9.6016-82.801 27.602-87.602 30-3.6016 2.3984-7.1992 3.6016-8.3984 3.6016l-2.3984 1.1992s6 0 14.398-1.1992c50.398-2.3984 100.8 8.3984 145.2 32.398h1.1992c2.3984 1.1992 3.6016 2.3984 6 3.6016 2.3984 1.1992 3.6016 2.3984 6 3.6016 2.3984 1.1992 3.6016 2.3984 6 3.6016 2.3984 1.1992 3.6016 2.3984 6 3.6016 0 0 1.1992 1.1992 2.3984 2.3984 68.398 69.602 92.398 171.6 62.398 264-2.3984 7.1992-4.8008 14.398-7.1992 21.602-8.3984 22.801-24 44.398-43.199 58.801-6 3.6016-10.801 8.3984-16.801 10.801-6 2.3984-12 7.1992-18 9.6016-6 2.3984-12 4.8008-19.199 7.1992-3.6016 1.1992-6 2.3984-9.6016 2.3984-3.6016 1.1992-6 1.1992-9.6016 2.3984-6 1.1992-13.199 2.3984-19.199 2.3984h-9.6016l-7.1953-0.003906h-4.8008c-13.199 0-26.398-2.3984-39.602-6-13.199-3.6016-25.199-7.1992-38.398-13.199-4.8008-2.3984-12-7.1992-20.398-13.199-7.1992-6-13.199-18-15.602-28.801-4.8008-14.398-2.3984-31.199 7.1992-43.199 30-37.199 73.199 43.199 73.199 43.199s22.801-74.398-78-121.2c22.801-1.1992 44.398 6 62.398 18l15.602 10.801s-9.6016-58.801-82.801-90c19.199 1.1992 38.398 9.6016 51.602 22.801l4.8008 4.8008c-3.6016-56.398-70.801-73.199-73.199-76.801 27.602 3.6016 52.801 14.398 52.801 14.398-21.602-49.199-85.199-57.602-91.199-61.199 32.398-1.1992 51.602 7.1992 51.602 7.1992-96-63.602-154.8-9.6016-160.8-4.8008 52.801-51.602-9.6016-92.398-9.6016-92.398 43.199 42-64.801 138-117.6 146.4-25.199 78-76.801 72-96 114 0 0 0 52.801 21.602 80.398 0 0 78-81.602 166.8-73.199h1.1992c30 2.3984 51.602 32.398 45.602 62.398-3.6016 19.199-8.3984 39.602-8.3984 39.602-6 7.1992-12 13.199-16.801 20.398-6 7.1992-10.801 14.398-15.602 22.801-4.8008 7.1992-9.6016 15.602-13.199 24-3.6016 8.3984-7.1992 16.801-10.801 25.199-3.6016 8.3984-6 18-8.3984 27.602-2.3984 9.6016-3.6016 18-4.8008 27.602-1.1992 9.6016-1.1992 19.199-1.1992 27.602 0 9.6016 1.1992 19.199 2.3984 27.602 1.1992 9.6016 3.6016 18 6 26.398 2.3984 8.3984 6 16.801 8.3984 25.199 3.6016 8.3984 7.1992 15.602 10.801 24 4.8008 7.1992 8.3984 15.602 14.398 21.602 2.3984 3.6016 4.8008 7.1992 7.1992 10.801 2.3984 3.6016 6 7.1992 8.3984 9.6016l18 18c0-1.1992-1.1992-2.3984-1.1992-3.6016-25.199-100.8 49.199-199.2 152.4-201.6l111.6-2.3984h9.6016 14.398c4.8008 0 9.6016-1.1992 14.398-1.1992 9.6016-1.1992 18-3.6016 27.602-6 18-4.8008 34.801-12 51.602-21.602 15.602-8.3984 31.199-19.199 44.398-31.199 7.1992-6 13.199-12 19.199-19.199 6-7.1992 12-13.199 16.801-20.398 6-7.1992 10.801-14.398 15.602-21.602 4.8008-7.1992 9.6016-15.602 13.199-22.801 8.3984-15.602 14.398-32.398 20.398-49.199 2.3984-8.3984 4.8008-16.801 7.1992-25.199 2.3984-8.3984 3.6016-16.801 3.6016-26.398 0-4.8008 1.1992-8.3984 1.1992-13.199v-7.1992-7.1992-3.6016-7.1953-4.8008c1.1992 3.6016 2.3984 6 4.8008 9.6016 21.602 45.602 34.801 97.199 37.199 151.2v10.801 13.199 6 10.801 10.801c0 3.6016-1.1992 7.1992-1.1992 9.6016 0 2.3984-1.1992 6-1.1992 9.6016 0 3.6016-1.1992 6-1.1992 9.6016-1.1992 3.6016-1.1992 8.3984-2.3984 12-1.1992 2.3984-1.1992 6-2.3984 8.3984-1.1992 7.1992-3.6016 14.398-4.8008 21.602l-1.1992 4.8008c0 1.1992-1.1992 3.6016-1.1992 4.8008-1.1992 3.6016-2.3984 7.1992-2.3984 9.6016 0 2.3984-2.3984 7.1992-3.6016 9.6016l-3.6016 9.6016c-20.398 52.801-51.602 102-91.199 142.8-40.801 40.801-88.801 72-141.6 92.398l-9.6016 3.6016c-3.6016 1.1992-7.1992 2.3984-9.6016 3.6016-3.6016 1.1992-7.1992 2.3984-9.6016 2.3984-1.1992 0-3.6016 1.1992-4.8008 1.1992l-4.8008 1.1992c-7.1992 1.1992-13.199 3.6016-20.398 4.8008-3.6016 1.1992-7.1992 1.1992-10.801 2.3984-3.6016 1.1992-7.1992 1.1992-10.801 1.1992-27.602 3.6016-54 4.8008-82.801 3.6016h-9.6016c-3.6016 0-7.1992-1.1992-9.6016-1.1992-3.6016 0-7.1992 0-9.6016-1.1992-3.6016 0-7.1992-1.1992-9.6016-1.1992-3.6016 0-7.1992-1.1992-9.6016-1.1992-3.6016-1.1992-6-1.1992-9.6016-2.3984s-7.1992-1.1992-9.6016-2.3984c-3.6016-1.1992-6-1.1992-9.6016-2.3984-25.199-6-49.199-15.602-72-25.199-22.801-9.6016-44.398-22.801-63.602-37.199-19.199-13.199-37.199-28.801-52.801-44.398-15.602-15.602-30-32.398-42-49.199-2.3984-3.6016-6-8.3984-8.3984-12-2.3984-3.6016-6-8.3984-8.3984-12-1.1992-2.3984-2.3984-3.6016-3.6016-6-1.1992-2.3984-2.3984-3.6016-3.6016-6-1.1992-2.3984-2.3984-3.6016-3.6016-6-1.1992-2.3984-2.3984-3.6016-3.6016-6-18-32.398-30-63.602-37.199-88.801-7.1992-26.398-10.801-48-13.199-62.398-2.3984-14.398-2.3984-22.801-2.3984-22.801v6c0 3.6016-1.1992 9.6016-1.1992 16.801v12 15.602c0 6 0 10.801 1.1992 18 1.1992 6 1.1992 13.199 2.3984 20.398 3.6016 27.602 10.801 62.398 25.199 99.602 14.398 37.199 36 78 67.199 116.4 15.602 19.199 33.602 38.398 55.199 56.398 20.398 18 43.199 33.602 68.398 48 25.199 14.398 52.801 26.398 81.602 36 3.6016 1.1992 7.1992 2.3984 10.801 3.6016 3.6016 1.1992 7.1992 2.3984 10.801 3.6016 3.6016 1.1992 7.1992 2.3984 10.801 2.3984 3.6016 1.1992 7.1992 1.1992 10.801 2.3984s7.1992 1.1992 12 2.3984c4.8008 1.1992 7.1992 1.1992 12 2.3984 3.6016 1.1992 7.1992 1.1992 12 2.3984 3.6016 0 8.3984 1.1992 12 1.1992 31.199 3.6016 64.801 3.6016 97.199 0 4.8008 0 8.3984-1.1992 13.199-1.1992 3.6016-1.1992 7.1992-1.1992 10.801-2.3984 8.3984-1.1992 16.801-3.6016 25.199-4.8008l6-1.1992c2.3984 0 3.6016-1.1992 6-1.1992 3.6016-1.1992 8.3984-2.3984 12-3.6016 3.6016-1.1992 8.3984-2.3984 12-3.6016 3.6016-1.1992 8.3984-2.3984 12-3.6016 63.602-21.602 123.6-60 172.8-109.2 48-49.199 86.398-109.2 108-174 1.1992-3.6016 2.3984-8.3984 3.6016-12 1.1992-3.6016 2.3984-8.3984 3.6016-12 1.1992-3.6016 2.3984-8.3984 3.6016-12 0-2.3984 1.1992-3.6016 1.1992-6l1.1992-6c2.3984-8.3984 3.6016-16.801 4.8008-25.199 1.1992-3.6016 1.1992-8.3984 2.3984-12 1.1992-3.6016 1.1992-8.3984 1.1992-12 0-3.6016 1.1992-8.3984 1.1992-12 0-6 1.1992-12 1.1992-18v-8.3984-10.801-11.996c0-3.6016 0-8.3984-1.1992-12 0-3.6016 0-8.3984-1.1992-12 0-3.6016-1.1992-8.3984-1.1992-12-6-63.602-26.398-123.6-55.199-174-14.398-25.199-30-48-48-68.398 1.1992 1.1992 2.3984 2.3984 3.6016 3.6016 3.6016 3.6016 7.1992 7.1992 10.801 10.801 2.3984 2.3984 3.6016 3.6016 4.8008 6l2.3984 2.3984c1.1992 1.1992 1.1992 2.3984 2.3984 2.3984 3.6016 3.6016 7.1992 7.1992 10.801 12l2.3984 2.3984 2.3984 3.6016c1.1992 2.3984 3.6016 3.6016 4.8008 6 7.1992 8.3984 12 16.801 19.199 25.199 3.6016 4.8008 6 9.6016 9.6016 14.398 1.1992 2.3984 3.6016 4.8008 4.8008 7.1992s2.3984 3.6016 3.6016 6c22.801 37.199 40.801 79.199 52.801 122.4 6 21.602 10.801 44.398 14.398 67.199 1.1992 6 1.1992 10.801 2.3984 16.801 0 2.3984 1.1992 6 1.1992 8.3984l2.3984 16.797v8.3984 36c0 6 0 10.801-1.1992 16.801 0 6-1.1992 10.801-1.1992 16.801l-1.1992 8.3984c0 2.3984-1.1992 6-1.1992 8.3984-3.6016 22.801-7.1992 45.602-14.398 67.199-12 43.199-30 85.199-52.801 122.4s-49.199 70.801-78 99.602c-28.801 28.801-58.801 52.801-88.801 70.801-30 19.199-60 33.602-87.602 44.398-27.602 10.801-52.801 18-73.199 24-20.398 4.8008-38.398 8.3984-49.199 9.6016-10.801 1.1992-18 2.3984-18 2.3984h4.8008c3.6016 0 7.1992 1.1992 13.199 1.1992s13.199 1.1992 21.602 1.1992h14.398 15.602c22.801-1.1992 49.199-3.6016 80.398-9.6016 15.602-3.6016 31.199-7.1992 48-13.199 3.6016-1.1992 8.3984-2.3984 13.199-4.8008 4.8008-1.1992 8.3984-3.6016 13.199-4.8008 4.8008-1.1992 8.3984-3.6016 13.199-6 2.3984-1.1992 4.8008-2.3984 7.1992-2.3984 2.3984-1.1992 4.8008-2.3984 6-2.3984 18-8.3984 36-18 54-28.801s36-24 54-38.398c34.801-28.801 68.398-64.801 97.199-105.6 28.801-40.801 51.602-88.801 68.398-139.2 8.3984-25.199 14.398-51.602 18-78 1.1992-3.6016 1.1992-7.1992 1.1992-9.6016l1.1992-9.6016c1.1992-7.1992 1.1992-13.199 2.3984-20.398 0-7.1992 1.1992-14.398 1.1992-20.398v-39.598-9.6016l-2.3984-19.203c0-6-1.1992-12-2.3984-18 0-2.3984 0-4.8008-1.1992-7.1992 0-4.8008-1.1992-9.6016-2.3984-15.602l-7.1953-28.805c-1.1992-7.1992-2.3984-13.199-4.8008-19.199-2.3984-6-3.6016-13.199-6-19.199-15.602-50.398-39.602-98.398-68.398-139.2-1.1992-2.3984-2.3984-3.6016-3.6016-6-2.3984-2.3984-3.6016-6-6-8.3984-3.6016-4.8008-8.3984-10.801-12-15.602-8.3984-9.6016-15.602-19.199-24-27.602-15.602-18-33.602-33.602-51.602-48-9.6016-7.1992-19.199-15.602-28.801-21.602 16.801 8.3984 33.602 19.199 50.398 28.801 26.398 16.801 51.602 37.199 74.398 58.801 22.801 21.602 44.398 45.602 63.602 70.801 19.199 25.199 34.801 51.602 48 79.199l2.3984 4.7969 2.3984 4.8008c1.1992 3.6016 3.6016 6 4.8008 9.6016 1.1992 1.1992 1.1992 3.6016 2.3984 4.8008 1.1992 2.3984 1.1992 3.6016 2.3984 6 1.1992 3.6016 2.3984 7.1992 4.8008 10.801 1.1992 2.3984 1.1992 3.6016 2.3984 6v1.1992 0 1.1992l1.1992 2.3984c1.1992 3.6016 2.3984 7.1992 3.6016 9.6016 1.1992 3.6016 2.3984 7.1992 3.6016 9.6016 1.1992 3.6016 2.3984 7.1992 3.6016 9.6016 8.3984 26.398 14.398 52.801 18 78 3.6016 25.199 6 48 7.1992 68.398v15.602 14.398 13.199 6 6c0 3.6016 0 7.1992-1.1992 10.801 0 3.6016 0 7.1992-1.1992 9.6016 0 6-1.1992 10.801-1.1992 15.602 0 4.8008-1.1992 7.1992-1.1992 9.6016v3.6016s0-1.1992 1.1992-2.3984c1.1992-2.3984 2.3984-4.8008 4.8008-8.3984 1.1992-2.3984 2.3984-3.6016 2.3984-6 1.1992-2.3984 2.3984-4.8008 3.6016-7.1992 1.1992-2.3984 2.3984-6 3.6016-8.3984 1.1992-3.6016 2.3984-7.1992 3.6016-10.801 2.3984-7.1992 4.8008-15.602 8.3984-25.199 2.3984-9.6016 4.8008-19.199 7.1992-30 4.8008-21.602 8.3984-46.801 9.6016-73.199-1.1797-32.426-3.5781-62.426-8.3789-93.625z" fill="#fff"/>
</svg>