<?xml version="1.0" encoding="UTF-8"?>
<svg width="1200pt" height="1200pt" version="1.1" viewBox="0 0 1200 1200" xmlns="http://www.w3.org/2000/svg">
 <path d="m927.6 373.2c-73.199-32.398-171.6-48-171.6-48 36-12 96 6 129.6 14.398 73.199 15.602 151.2 9.6016 225.6-42 61.199-42 60-110.4 60-110.4-13.199 22.801-110.4 126-288 86.398-78-18-152.4-18-196.8-16.801 4.8008-44.398 1.1992-99.602-24-156 0 0-76.801 187.2-207.6 213.6-14.398 26.398-43.199 72-96 110.4-39.602 30-79.199 45.602-110.4 55.199-22.801 7.1992-32.398 33.602-19.199 52.801 19.199 28.801 50.398 62.398 97.199 76.801 0 0-18-42-12-62.398 0 0 24 28.801 80.398 26.398 0 0-31.199-19.199-30-49.199 0 0 30 26.398 79.199 22.801 0 0-32.398-8.3984-30-46.801 0 0 61.199-8.3984 115.2 10.801-12 4.8008-25.199 10.801-38.398 19.199-27.602 15.602-48 32.398-64.801 48-4.8008 3.6016-13.199 9.6016-25.199 13.199-20.398 4.8008-37.199-2.3984-42-4.8008 0 0 9.6016 20.398 22.801 26.398 13.199 6-15.602 14.398-38.398 9.6016-22.801-3.6016-46.801-14.398-46.801-14.398 1.1992 2.3984 12 49.199 56.398 64.801 7.1992 2.3984 13.199 3.6016 19.199 4.8008 26.398 2.3984 51.602-12 62.398-36 0-1.1992 1.1992-2.3984 2.3984-3.6016 0 0 12-22.801 38.398-43.199 27.602-21.602 82.801-39.602 152.4-39.602 36 20.398 60 61.199 54 102-3.6016 24-15.602 44.398-27.602 63.602-36 57.602-121.2 72-182.4 90-51.602 14.398-104.4 27.602-157.2 36-43.199 7.1992-85.199 13.199-126 32.398-51.594 26.402-95.996 68.402-126 121.2-12 21.602-21.602 45.602-28.801 69.602-1.1992 3.6016-3.6016 27.602-6 28.801 134.4-84 205.2-60 426-51.602 220.8 9.6016 297.6-122.4 297.6-122.4-6 54-87.602 148.8-87.602 148.8 141.6-28.801 216-277.2 216-277.2 14.398 85.199-54 204-54 204 254.4-256.8 63.602-464.4 63.602-464.4 76.801 27.594 129.6 147.59 129.6 147.59 2.3984-42-1.1992-85.199-19.199-123.6-9.6016-20.398-21.602-38.398-38.398-54-16.801-16.801-37.199-28.801-58.801-39.602-14.398-7.1992-28.801-15.602-43.199-25.199-7.1992-4.8008-14.398-9.6016-20.398-14.398-6-4.8008-15.602-9.6016-20.398-16.801 6-1.1992 14.398 2.3984 19.199 3.6016 7.1992 2.3984 13.199 3.6016 19.199 6 13.199 4.8008 25.199 9.6016 38.398 13.199 14.398 4.8008 28.801 8.3984 43.199 12 152.4 38.398 207.6-48 207.6-48-38.402 28.801-145.2 8.4023-218.4-24zm-400.8-8.3984-2.3984 12c-2.3984 8.3984-7.1992 16.801-15.602 20.398l-32.398 15.602c-9.6016 4.8008-16.801-7.1992-9.6016-14.398l44.398-42c6-7.2031 16.801-1.2031 15.602 8.3984z" fill="#fff"/>
</svg>